<svg width="100%" height="100%" viewBox="0 0 734 728" fill="none" xmlns="http://www.w3.org/2000/svg">
<path d="M384.017 406.66H326.979C324.606 406.659 322.304 405.725 320.452 404.012C318.6 402.3 317.307 399.91 316.787 397.237L304.357 333.265C304.015 331.501 304.021 329.672 304.373 327.911C304.726 326.151 305.417 324.505 306.395 323.094C307.374 321.684 308.614 320.545 310.024 319.763C311.435 318.98 312.98 318.574 314.545 318.574" stroke="#330066" stroke-width="5" stroke-miterlimit="10" stroke-linecap="round"/>
<path d="M489.223 406.66H432.185C429.812 406.659 427.51 405.725 425.658 404.012C423.806 402.3 422.513 399.91 421.993 397.237L409.563 333.265C409.221 331.501 409.227 329.672 409.579 327.911C409.932 326.151 410.623 324.505 411.601 323.094C412.579 321.684 413.82 320.545 415.23 319.763C416.641 318.98 418.186 318.574 419.751 318.574" stroke="#330066" stroke-width="5" stroke-miterlimit="10" stroke-linecap="round"/>
<path d="M426.794 341.145H329.997C326.474 341.145 323.054 339.768 320.295 337.239C317.536 334.709 315.6 331.176 314.801 327.214L300.852 258.04C300.397 255.786 300.39 253.442 300.829 251.183C301.269 248.925 302.145 246.81 303.392 244.997C304.638 243.184 306.223 241.72 308.029 240.714C309.834 239.707 311.813 239.184 313.818 239.185H410.619C414.142 239.185 417.561 240.562 420.319 243.091C423.078 245.621 425.013 249.154 425.811 253.115L439.76 322.303C440.212 324.557 440.217 326.899 439.776 329.155C439.335 331.411 438.459 333.524 437.213 335.335C435.966 337.146 434.382 338.609 432.579 339.615C430.775 340.62 428.798 341.143 426.794 341.145Z" fill="white" stroke="#330066" stroke-width="5" stroke-miterlimit="10" stroke-linecap="round"/>
<path d="M492.148 390.703H336.902C333.086 390.703 329.993 394.275 329.993 398.682C329.993 403.088 333.086 406.66 336.902 406.66H492.148C495.964 406.66 499.058 403.088 499.058 398.682C499.058 394.275 495.964 390.703 492.148 390.703Z" fill="#EAEEFF" stroke="#330066" stroke-width="5" stroke-miterlimit="10" stroke-linecap="round"/>
<path d="M318.448 588.047L337.723 422.185C338.092 413.485 344.031 406.66 351.233 406.66H384.541C391.743 406.66 397.682 413.485 398.056 422.185L417.33 588.047" stroke="#330066" stroke-width="5" stroke-miterlimit="10" stroke-linecap="round"/>
<path d="M440.861 406.66H473.203C480.194 406.66 485.962 413.485 486.323 422.185L505.394 588.047" stroke="#330066" stroke-width="5" stroke-miterlimit="10" stroke-linecap="round"/>
<path d="M593.479 242.304C595.579 243.903 600.449 255.817 600.539 257.252C600.628 258.687 595.035 269.353 595.035 269.353C595.035 269.353 592.813 269.41 592.39 263.542C591.875 256.595 589.234 253.964 585.408 252.974C583.807 252.562 580.866 253.969 580.659 256.689C580.452 259.41 586.537 261.215 587.76 262.866C589.616 265.362 588.572 268.88 588.572 268.964C588.572 268.964 579.181 265.681 577.377 265.071C575.752 264.513 568.498 256.896 563.973 249.344C562.289 250.768 560.525 252.061 558.692 253.214C547.318 260.277 508.323 276.708 488.123 272.984C467.837 269.231 484.04 194.654 484.04 194.654C513.417 196.221 525.717 191.901 527.959 190.986L523.397 225.461C535.742 225.038 566.117 230.85 566.134 230.854C574.668 232.149 590.461 240.01 593.479 242.304Z" fill="#F1921B"/>
<path d="M483.898 194.621H484.073C513.449 196.188 525.749 191.868 527.991 190.953L526.915 199.396C526.915 199.396 505.122 211.244 480.884 210.184L483.898 194.621Z" fill="#EB7200"/>
<path d="M486.843 288.889C493.822 288.298 506.471 194.527 506.471 194.527C522.049 194.79 540.884 186.399 540.884 186.399C540.884 186.399 528.004 137.656 523.564 127.605C519.124 117.553 487.254 100.175 483.492 98.9184L421.368 82.502C421.368 82.502 368.338 97.7129 351.615 113.323C334.892 128.932 321.824 194.776 321.824 194.776C352.537 209.077 384.379 206.971 384.379 206.971L373.554 282.313C370.048 300.606 358.849 358.682 378.595 386.881C378.595 386.881 394.481 296.722 486.843 288.889Z" fill="#EAEEFF"/>
<path d="M446.016 106.625L427.437 119.716L403.877 88.0835L421.563 75.851C422.078 75.4965 422.649 75.2638 423.243 75.1663C423.837 75.0688 424.442 75.1084 425.022 75.283C425.603 75.4575 426.147 75.7635 426.625 76.183C427.102 76.6026 427.502 77.1275 427.802 77.7271L446.016 106.625Z" fill="#DBDAFF"/>
<path d="M474.271 109.627L487.347 118.538L486.717 100.424L483.492 98.9184C483.492 98.9184 477.749 103.365 474.271 109.627Z" fill="#DBDAFF"/>
<path d="M384.379 206.962C386.898 197.435 389.416 174.424 389.416 174.424" stroke="#C7BFFF" stroke-width="5" stroke-linejoin="round"/>
<path d="M427.437 119.716L445.667 107.422C445.667 107.422 463.158 131.451 463.645 135.654C464.133 139.856 465.051 182.712 465.051 182.712H474.271" stroke="#C7BFFF" stroke-width="5" stroke-linejoin="round"/>
<path d="M487.002 118.519L474.617 110.424C474.617 110.424 463.385 130.94 463.649 135.654" stroke="#C7BFFF" stroke-width="5" stroke-linejoin="round"/>
<path d="M386.357 197.496C386.357 197.496 347.102 198.843 324.03 184.649" stroke="#C7BFFF" stroke-width="5" stroke-linejoin="round"/>
<path d="M503.802 271.727C503.802 273.88 484.654 273.096 481.957 273.096C479.259 273.096 462.366 273.837 458.397 273.096C436.824 275.146 340.599 283.223 329.408 265.263C316.454 244.466 328.027 197.421 328.027 197.421C357.09 209.077 384.379 206.957 384.379 206.957L381.995 224.823C405.063 228.106 446.69 244.991 460.842 250.906C463.877 249.785 475.429 245.747 481.278 247.285C488.046 249.044 496.174 256.079 497.019 258.035C497.863 259.991 503.802 269.578 503.802 271.727Z" fill="#F1921B"/>
<path d="M481.944 273.096C484.642 273.096 503.79 273.88 503.79 271.731C503.79 269.583 497.863 260.005 497.018 258.05C496.174 256.094 488.05 249.058 481.278 247.299C481.278 247.299 489.634 260.7 481.944 273.096Z" fill="#EB7200"/>
<path d="M328.01 197.435C328.01 197.435 357.757 209.518 384.379 206.962L381.995 224.823C381.995 224.823 346.468 218.256 326.751 203.397L328.01 197.435Z" fill="#EB7200"/>
<path d="M585.363 589.736H519.587C519.522 588.577 519.498 587.47 519.518 586.406H585.448C585.52 587.516 585.492 588.632 585.363 589.736Z" fill="#330066"/>
<path d="M526.289 555.73C526.525 564.014 519.591 569.262 519.591 586.382H585.363C585.363 586.382 586.318 572.02 573.177 568.709C560.036 565.397 548.062 560.974 546.867 555.73H526.289Z" fill="#FF8F33"/>
<path d="M547.318 571.204L553.322 560.942" stroke="#330066" stroke-width="5" stroke-miterlimit="10" stroke-linecap="round"/>
<path d="M552.002 572.452L557.648 563.024" stroke="#330066" stroke-width="5" stroke-miterlimit="10" stroke-linecap="round"/>
<path d="M558.127 572.869L562.693 564.272" stroke="#330066" stroke-width="5" stroke-miterlimit="10" stroke-linecap="round"/>
<path d="M455.553 295.526C455.553 295.526 555.942 288.274 580.338 321.417C604.735 354.559 557.38 472.757 552.595 544.563C552.595 544.563 528.572 547.325 518.819 544.563C509.066 541.8 500.577 419.038 525.152 385.342C525.152 385.342 431.726 410.159 395.294 378.86C358.861 347.561 440.398 296.117 455.553 295.526Z" fill="#330066"/>
<path d="M546.859 555.73C540.189 558.334 532.963 558.334 526.293 555.73L524.348 545.487C524.348 545.487 537.127 546.232 548.801 544.942L546.859 555.73Z" fill="#F1921B"/>
<path d="M734 474.727L681.824 520.97C681.084 519.929 680.417 518.911 679.821 517.916L731.791 471.857C732.62 472.713 733.361 473.676 734 474.727Z" fill="#5200A3"/>
<path d="M668.813 489.028C673.371 495.435 670.633 504.474 679.663 518.057L731.839 471.815C731.839 471.815 725.023 459.751 712.841 466.369C700.659 472.987 688.843 477.893 685.126 474.568L668.813 489.028Z" fill="#FF8F33"/>
<path d="M693.79 485.787L693.145 473.831" stroke="#5200A3" stroke-width="5" stroke-miterlimit="10" stroke-linecap="round"/>
<path d="M697.755 482.875L697.109 472.166" stroke="#5200A3" stroke-width="5" stroke-miterlimit="10" stroke-linecap="round"/>
<path d="M701.719 479.962L701.073 470.501" stroke="#5200A3" stroke-width="5" stroke-miterlimit="10" stroke-linecap="round"/>
<path d="M378.595 382.19C380.098 391.543 465.522 414.207 556.421 347.95C556.421 347.95 562.396 427.875 654.243 485.848C654.243 485.848 674.228 477.518 683.209 459.211C683.209 459.211 623.294 378.307 600.226 304.011C590.542 272.815 468.662 289.147 450.842 295.526C433.021 301.905 371.896 340.507 378.595 382.19Z" fill="#5200A3"/>
<path d="M685.126 474.568C685.126 474.568 681.19 488.564 668.813 489.028L660.746 482.424C668.04 478.119 674.528 472.194 679.837 464.99L685.126 474.568Z" fill="#F1921B"/>
<path d="M457.089 56.7188C457.089 56.7188 453.291 68.2478 428.655 79.2327C428.655 79.2327 445.992 106.634 463.625 132.38C463.625 132.38 470.693 108.726 483.468 98.9277L457.089 56.7188Z" fill="#F1921B"/>
<path d="M483.492 98.9183C479.727 101.887 476.554 105.898 473.93 110.175C465.806 103.14 456.671 90.7899 453.965 81.8312C452.629 77.3988 456.167 65.4148 458.218 58.4918L483.492 98.9183Z" fill="#EB7200"/>
<path d="M456.593 58.9702C456.593 62.7225 453.77 74.275 457.186 78.9091C463.434 87.3846 481.331 100.954 490.133 100.386C496.405 99.9971 505.289 68.5808 506.613 63.8857C507.937 59.1906 513.656 40.3634 509.594 35.3306C505.532 30.2978 471.578 19.2847 464.831 35.5041C457.353 53.4824 456.593 58.9702 456.593 58.9702Z" fill="#F1921B"/>
<path d="M523.564 24.4113C520.229 49.6034 506.02 52.8961 478.029 33.975C465.205 25.3119 474.271 40.8277 467.061 54.2985L464.705 55.3117C464.782 53.9561 464.949 48.3558 462.536 48.3417C458.982 48.3417 457.889 54.5518 457.548 58.3839L456.183 58.9702C456.183 58.9702 456.037 30.8888 459.486 21.9629C468.016 -0.133552 492.672 11.8035 498.721 15.5605C517.804 27.4038 523.564 24.4113 523.564 24.4113Z" fill="#FF8F33"/>
<path d="M477.399 32.0473C497.303 50.1898 512.942 54.4909 520.708 43.8249" stroke="#FF8F33" stroke-width="4" stroke-miterlimit="10"/>
<path d="M460.798 40.2996L460.759 40.2867C455.994 38.7217 451.033 41.9127 449.678 47.4141L448.573 51.8985C447.218 57.3999 449.981 63.1284 454.746 64.6934L454.785 64.7062C459.549 66.2713 464.51 63.0802 465.865 57.5788L466.97 53.0945C468.326 47.5931 465.562 41.8646 460.798 40.2996Z" fill="white" stroke="#330066" stroke-width="5" stroke-miterlimit="10" stroke-linecap="round"/>
<path d="M467.301 51.747L465.522 58.9702C464.959 61.2492 463.636 63.1772 461.843 64.3302C460.05 65.4832 457.934 65.7671 455.96 65.1193L453.555 64.3266C453.449 64.2938 453.348 64.2563 453.242 64.2141C455.183 64.757 457.231 64.4099 458.955 63.2456C460.679 62.0814 461.945 60.1908 462.487 57.9711L464.266 50.7479C464.817 48.532 464.602 46.1561 463.667 44.1192C462.733 42.0822 461.151 40.5427 459.254 39.824L459.571 39.9178L461.963 40.6964C462.944 41.0132 463.861 41.5511 464.662 42.2791C465.462 43.0071 466.129 43.9108 466.625 44.9381C467.121 45.9654 467.437 47.0959 467.553 48.2645C467.668 49.4332 467.583 50.6167 467.301 51.747Z" fill="white" stroke="#330066" stroke-width="5" stroke-miterlimit="10" stroke-linecap="round"/>
<path d="M459.571 39.9037L466.882 10.2604C467.204 8.95205 467.747 7.72977 468.478 6.66338C469.209 5.59699 470.115 4.70737 471.144 4.04532C472.173 3.38328 473.305 2.96178 474.475 2.8049C475.645 2.64801 476.83 2.75882 477.963 3.13099L503.96 11.6675C507.177 12.7229 508.64 15.6544 507.722 19.3738" stroke="#330066" stroke-width="5" stroke-miterlimit="10" stroke-linecap="round"/>
<path d="M581.029 274.278H467.053C461.849 274.278 458.551 268.27 461.061 263.364L499.65 188.003C503.006 181.436 509.399 177.375 516.37 177.375H630.35C635.553 177.375 638.851 183.383 636.341 188.289L597.752 263.65C594.385 270.207 587.983 274.278 581.029 274.278Z" fill="#EAEEFF"/>
<path d="M579.912 276.698H470.615C465.517 276.698 462.288 270.812 464.75 266.004L502.555 192.173C505.845 185.747 512.121 181.76 518.937 181.76H628.233C633.331 181.76 636.56 187.647 634.099 192.454L596.294 266.281C593.004 272.707 586.728 276.698 579.912 276.698Z" fill="#C0C1FF"/>
<path d="M581.029 274.278H467.053C461.849 274.278 458.551 268.27 461.061 263.364L499.65 188.003C503.006 181.436 509.399 177.375 516.37 177.375H630.35C635.553 177.375 638.851 183.383 636.341 188.289L597.752 263.65C594.385 270.207 587.983 274.278 581.029 274.278Z" stroke="#330066" stroke-width="5" stroke-miterlimit="10"/>
<path d="M582.564 274.377H374.439C372.245 274.377 370.466 276.43 370.466 278.964V279.977C370.466 282.511 372.245 284.564 374.439 284.564H582.564C584.758 284.564 586.537 282.511 586.537 279.977V278.964C586.537 276.43 584.758 274.377 582.564 274.377Z" fill="#D1D1FF" stroke="#330066" stroke-width="6" stroke-miterlimit="10"/>
<path d="M327.849 532.958C327.849 535.236 326.912 537.42 325.245 539.031C323.578 540.641 321.317 541.546 318.959 541.546H180.793C178.435 541.546 176.174 540.641 174.507 539.031C172.84 537.42 171.903 535.236 171.903 532.958C171.903 530.68 172.84 528.496 174.507 526.885C176.174 525.275 178.435 524.37 180.793 524.37H318.959C321.317 524.37 323.578 525.275 325.245 526.885C326.912 528.496 327.849 530.68 327.849 532.958Z" fill="white" stroke="#FF8F33" stroke-width="5" stroke-miterlimit="10"/>
<path d="M278.43 555.381H226.425C224.756 555.381 223.155 554.741 221.974 553.601C220.794 552.46 220.131 550.914 220.131 549.301V541.546H284.72V549.305C284.719 550.916 284.056 552.461 282.876 553.601C281.697 554.74 280.098 555.38 278.43 555.381Z" fill="white" stroke="#FF8F33" stroke-width="5" stroke-miterlimit="10"/>
<path d="M245.614 660.62H259.219V555.382H245.614V660.62Z" fill="white" stroke="#FF8F33" stroke-width="5" stroke-miterlimit="10"/>
<path d="M244.711 687.767H260.131C263.135 687.767 265.571 685.414 265.571 682.511V665.876C265.571 662.973 263.135 660.62 260.131 660.62H244.711C241.707 660.62 239.271 662.973 239.271 665.876V682.511C239.271 685.414 241.707 687.767 244.711 687.767Z" fill="white" stroke="#FF8F33" stroke-width="5" stroke-miterlimit="10"/>
<path d="M312.634 712.218C312.634 705.733 309.968 699.514 305.221 694.929C300.475 690.343 294.037 687.767 287.325 687.767H217.513C210.8 687.767 204.363 690.343 199.616 694.929C194.87 699.514 192.203 705.733 192.203 712.218" stroke="#5200A3" stroke-width="5" stroke-miterlimit="10"/>
<path d="M313.092 724.92C318.692 724.92 323.231 720.534 323.231 715.125C323.231 709.715 318.692 705.33 313.092 705.33C307.492 705.33 302.953 709.715 302.953 715.125C302.953 720.534 307.492 724.92 313.092 724.92Z" fill="white" stroke="#FF8F33" stroke-width="5" stroke-miterlimit="10"/>
<path d="M191.563 724.92C197.163 724.92 201.702 720.534 201.702 715.125C201.702 709.715 197.163 705.33 191.563 705.33C185.964 705.33 181.424 709.715 181.424 715.125C181.424 720.534 185.964 724.92 191.563 724.92Z" fill="white" stroke="#FF8F33" stroke-width="5" stroke-miterlimit="10"/>
<path d="M252.783 724.92C258.383 724.92 262.922 720.534 262.922 715.125C262.922 709.715 258.383 705.33 252.783 705.33C247.184 705.33 242.644 709.715 242.644 715.125C242.644 720.534 247.184 724.92 252.783 724.92Z" fill="white" stroke="#FF8F33" stroke-width="5" stroke-miterlimit="10"/>
<path d="M120.613 673.85C116.088 684.221 111.968 692.723 108.825 698.301C106.487 702.449 102.416 726.642 81.009 716.894C80.2534 716.551 89.4544 714.258 92.3569 694.243C93.3733 687.226 94.3053 680.459 95.1528 673.941C103.527 674.49 114.15 674.155 120.613 673.85Z" fill="#FFCFC9"/>
<path d="M115.986 726.642C115.986 726.642 124.605 697.828 113.079 693.431C109.399 692.027 104.936 695.578 103.745 707.705C102.7 718.307 86.6672 719.952 85.1559 713.098C85.1559 713.098 65.5005 716.963 65.5005 726.642H115.986Z" fill="#330066"/>
<path d="M126.432 673.524C126.432 673.524 102.625 675.169 90.1034 673.447C90.1034 673.447 73.4794 505.914 75.9641 488.677C78.9555 467.941 150.412 449.563 187.354 443.736L194.159 413.961C194.159 413.961 244.138 413.102 272.359 413.102C272.359 413.102 302.584 465.06 299.473 499.413C296.361 533.765 231.19 525.967 144.154 525.967C144.154 525.967 170.69 577.715 126.432 673.524Z" fill="#5200A3"/>
<path d="M198.955 674.666C192.334 675.234 185.671 675.183 179.06 674.512C181.282 682.864 183.336 690.829 184.967 697.944C186.021 702.513 179.251 708.679 177.322 713.167L177.473 713.098C186.363 711.728 198.288 719.861 197.062 707.168C195.835 694.475 197.72 691.31 198.955 674.666Z" fill="#FFCFC9"/>
<path d="M196.795 697.828C199.853 697.828 204.822 703.17 204.329 711.724C204.045 716.828 202.951 721.859 201.084 726.642H166.712C167.316 717.431 177.473 713.098 177.473 713.098C186.363 711.728 197.844 719.861 196.617 707.168L196.795 697.828Z" fill="#330066"/>
<path d="M223.705 459.839C223.705 459.839 147.95 473.064 139.344 494.985C130.739 516.907 170.881 673.511 170.881 673.511C194.155 676.946 206.094 673.511 206.094 673.511C230.301 566.263 201.938 530.691 201.938 530.691C258.348 528.376 293.948 533.546 299.477 499.438C301.242 488.609 288.636 447.184 223.705 459.839Z" fill="#5200A3"/>
<path d="M222.371 459.839C222.371 459.839 146.616 473.064 138.011 494.985C129.405 516.907 169.548 673.511 169.548 673.511" stroke="white" stroke-width="5" stroke-miterlimit="10"/>
<path d="M205.716 389.665C210.219 379.832 190.23 366.907 169.774 372.059C169.774 372.059 176.673 292.757 192.839 282.764C208.529 273.069 212.308 318.736 212.841 329.888C212.823 329.888 215.726 373.03 205.716 389.665Z" fill="#EAEEFF"/>
<path d="M203.956 392.057C213.863 383.469 193.377 365.992 169.774 372.06C155.008 374.275 97.6063 386.097 92.2101 388.806C86.9385 391.078 71.7146 398.477 69.7766 400.722C67.3319 403.556 66.9585 411.054 67.1097 412.042C67.2608 413.029 69.2654 418.169 69.2654 418.169C69.2654 418.169 73.1103 417.787 72.6214 413.746C72.0346 408.941 76.4618 407.451 79.4221 406.163C80.6578 405.63 83.867 405.849 84.4315 407.657C84.996 409.465 80.3155 411.655 79.5421 412.965C78.3909 414.949 79.7243 417.169 79.751 417.216C79.7777 417.263 86.8896 413.514 88.263 412.81C89.5254 412.162 95.4594 405.472 97.9752 399.576C97.993 399.572 186.563 407.155 203.956 392.057Z" fill="#FFC0B7"/>
<path d="M192.963 240.094C191.296 236.182 184.389 215.94 195.581 207.198C206.774 198.455 221.535 189.485 239.395 190.88C257.255 192.276 262.233 215.249 272.354 218.942C282.475 222.635 294.823 218.255 306.491 228.389C318.159 238.523 306.047 254.475 317.937 262.99C329.827 271.505 341.286 260.732 353.198 275.778C366.853 293.032 346.909 312.969 366.293 314.686C387.727 316.584 400.657 351.641 391.456 374.911H279.808C208.521 364.27 192.963 240.094 192.963 240.094Z" fill="#FF8F33"/>
<path d="M200.657 205.987C211.539 196.673 224.189 190.476 242.084 191.322C259.979 192.168 266.86 211.427 277.101 214.88C287.342 218.332 300.255 213.458 312.27 223.468C324.284 233.477 312.714 251.259 324.915 259.602C337.117 267.946 348.171 256.549 360.599 271.591C374.854 288.841 355.612 308.52 375.045 309.662C396.532 310.929 410.578 337.174 399.786 366.932" stroke="#FF8F33" stroke-width="5" stroke-miterlimit="10"/>
<path d="M193.821 413.66C193.821 413.66 187.492 363.823 184.145 361.213C176.628 355.347 170.65 346.935 173.783 335.319C175.561 328.762 189.852 285.298 192.897 282.537C195.941 279.776 215.921 272.875 215.921 272.875H272.372C278.799 274.945 298.979 281.957 303.802 289.094C327.36 323.944 334.894 379.845 334.894 379.845H305.602C305.602 379.845 291.503 349.275 286.489 348.927C281.475 348.579 272.083 413.231 272.083 413.231C272.083 413.231 239.968 421.84 193.821 413.66Z" fill="#EAEEFF"/>
<path d="M193.376 413.66C193.376 413.66 187.047 363.823 183.7 361.213C176.184 355.347 169.761 346.505 172.894 334.89" stroke="white" stroke-width="5" stroke-miterlimit="10"/>
<path d="M233.412 278.93C233.412 278.93 207.409 326.86 213.854 417.954" stroke="white" stroke-width="5" stroke-miterlimit="10"/>
<path d="M230.305 319.509C232.198 319.509 233.732 318.026 233.732 316.198C233.732 314.37 232.198 312.887 230.305 312.887C228.412 312.887 226.878 314.37 226.878 316.198C226.878 318.026 228.412 319.509 230.305 319.509Z" stroke="white" stroke-width="5" stroke-miterlimit="10"/>
<path d="M225.607 343.787C227.499 343.787 229.034 342.305 229.034 340.477C229.034 338.648 227.499 337.166 225.607 337.166C223.714 337.166 222.18 338.648 222.18 340.477C222.18 342.305 223.714 343.787 225.607 343.787Z" stroke="white" stroke-width="5" stroke-miterlimit="10"/>
<path d="M223.096 368.152C224.988 368.152 226.523 366.67 226.523 364.841C226.523 363.013 224.988 361.53 223.096 361.53C221.203 361.53 219.668 363.013 219.668 364.841C219.668 366.67 221.203 368.152 223.096 368.152Z" stroke="white" stroke-width="5" stroke-miterlimit="10"/>
<path d="M331.645 393.435C317.141 408.168 223.371 388.467 223.371 388.467C223.371 388.467 218.482 395.93 212.757 396.196C207.032 396.463 201.613 394.509 198.706 396.879C195.799 399.25 192.866 403.376 190.59 403.801C187.888 404.335 185.115 404.448 182.376 404.136C183.348 401.545 184.467 399.008 185.727 396.536C183.998 397.888 181.851 400.37 180.593 401.405C180.07 401.876 179.397 402.162 178.685 402.219C177.972 402.276 177.26 402.1 176.664 401.719C176.664 401.719 180.42 396.179 181.9 394.698C183.38 393.216 187.918 389.498 190.434 388.652C193.408 387.424 210.819 379.183 219.508 377.818C228.723 376.375 303.344 371.523 303.344 371.523C330.334 371.506 343.824 381.068 331.645 393.435Z" fill="#FFCFC9"/>
<path d="M185.18 403.273C185.18 403.273 190.568 394.225 192.372 393.268C195.55 391.576 199.698 389.352 199.698 389.352" stroke="#FFB0AF" stroke-width="3" stroke-miterlimit="10" stroke-linecap="round"/>
<path d="M188.905 403.11C188.905 403.11 193.666 395.668 195.47 394.711C198.649 393.019 202.796 390.794 202.796 390.794" stroke="#FFB0AF" stroke-width="3" stroke-miterlimit="10" stroke-linecap="round"/>
<path d="M238.782 239.42C238.782 239.42 246.636 263.214 272.354 272.875C272.354 272.875 236.279 288.059 215.904 272.875V240.107L238.782 239.42Z" fill="#FFCFC9"/>
<path d="M221.113 275.971C219.277 275.115 217.537 274.077 215.921 272.875V240.107L238.782 239.42C238.782 239.42 239.004 240.09 239.493 241.254C241.826 251.298 235.515 272.137 221.113 275.971Z" fill="#FFC0B7"/>
<path d="M238.182 243.083C237.946 250.907 222.704 269.311 214.37 269.311C207.463 269.311 194.568 249.185 192.941 240.112C191.274 230.776 192.963 214.218 206.743 213.986C215.259 213.845 219.633 221.574 222.189 230.536C225.3 241.353 234.848 238.926 234.848 238.926C234.848 238.926 237.582 232.915 241.391 235.921C245.2 238.926 238.182 243.083 238.182 243.083Z" fill="#FFCFC9"/>
<path d="M16.7754 726.641L39 430.854L61.2246 727.264" stroke="#FF8F33" stroke-width="5" stroke-miterlimit="10"/>
<path d="M14.824 430.854H307.447C309.275 430.854 311.028 430.153 312.322 428.905C313.615 427.657 314.343 425.964 314.345 424.198C314.345 422.43 313.618 420.735 312.325 419.485C311.031 418.236 309.276 417.533 307.447 417.533H14.824V430.854Z" fill="white"/>
<path d="M14.824 430.854H307.447C309.275 430.854 311.028 430.153 312.322 428.905C313.615 427.657 314.343 425.964 314.345 424.198C314.345 422.43 313.618 420.735 312.325 419.485C311.031 418.236 309.276 417.533 307.447 417.533H14.824" stroke="#FF8F33" stroke-width="5" stroke-miterlimit="10"/>
<path d="M130.734 316.984H12.6459C11.3448 316.985 10.0631 317.289 8.90971 317.871C7.75636 318.453 6.76542 319.295 6.02106 320.326C5.2767 321.357 4.80091 322.547 4.6341 323.793C4.46729 325.04 4.61439 326.307 5.0629 327.487L34.8439 405.639H173.126L142.322 324.795C141.45 322.504 139.871 320.526 137.799 319.13C135.727 317.733 133.261 316.984 130.734 316.984Z" stroke="black" stroke-miterlimit="10"/>
<path d="M131.797 316.984H13.2728C7.79219 316.984 3.98733 322.596 5.88087 327.891L31.6614 400.207C32.1757 401.762 33.181 403.121 34.5363 404.096C35.8916 405.07 37.5287 405.61 39.2178 405.639H171.801L143.1 325.1C141.358 320.221 136.846 316.984 131.797 316.984Z" fill="white"/>
<path d="M126.907 322.399H8.38335C7.1142 322.398 5.86377 322.694 4.73854 323.261C3.6133 323.829 2.64657 324.65 1.92067 325.656C1.19477 326.661 0.731184 327.822 0.569392 329.038C0.4076 330.254 0.55239 331.49 0.991435 332.64L26.772 400.538C27.3392 402.033 28.368 403.324 29.7194 404.237C31.0709 405.149 32.6797 405.639 34.3284 405.639H166.912L138.211 330.016C137.36 327.782 135.819 325.854 133.798 324.491C131.777 323.129 129.372 322.399 126.907 322.399Z" fill="#E2E2FF"/>
<path d="M34.5684 405.639H260.753C263.906 405.639 266.931 406.849 269.16 409.003C271.39 411.158 272.643 414.079 272.643 417.126H46.4585C43.3051 417.126 40.2808 415.915 38.0509 413.761C35.8211 411.607 34.5684 408.685 34.5684 405.639Z" fill="white" stroke="#5200A3" stroke-width="6" stroke-miterlimit="10"/>
<path d="M130.734 316.984H12.6459C11.3448 316.985 10.0631 317.289 8.90971 317.871C7.75636 318.453 6.76542 319.295 6.02106 320.326C5.2767 321.357 4.80091 322.547 4.6341 323.793C4.46729 325.04 4.61439 326.307 5.0629 327.487L34.8439 405.639H173.126L142.322 324.795C141.45 322.504 139.871 320.526 137.799 319.13C135.727 317.733 133.261 316.984 130.734 316.984Z" stroke="#5200A3" stroke-width="5" stroke-miterlimit="10"/>
<path d="M87.2663 373.726C90.0637 370.725 89.2243 365.589 85.3914 362.255C81.5585 358.921 76.1836 358.651 73.3862 361.653C70.5888 364.654 71.4282 369.79 75.2611 373.124C79.094 376.458 84.4689 376.728 87.2663 373.726Z" fill="#FF8F33"/>
<path d="M89.9831 370.993C92.7805 367.991 91.9411 362.855 88.1082 359.521C84.2753 356.187 78.9004 355.918 76.103 358.919C73.3056 361.92 74.145 367.056 77.9779 370.39C81.8108 373.724 87.1857 373.994 89.9831 370.993Z" stroke="#5200A3" stroke-width="5" stroke-miterlimit="10"/>
</svg>
